<svg id="Layer_1" data-name="Layer 1" xmlns="http://www.w3.org/2000/svg" viewBox="0 0 480 240"><defs><style>.cls-1,.cls-17{fill:#9c3;}.cls-2{fill:none;}.cls-3{fill:#fff;}.cls-4{fill:#a581b8;}.cls-5{fill:#907a80;}.cls-6{fill:#e1496e;}.cls-7{fill:#c72a5c;}.cls-8{fill:#e88095;}.cls-9{fill:#c04b7e;}.cls-10{fill:#c8dd91;}.cls-11{fill:#bc8448;}.cls-12{fill:#8a63a6;}.cls-13,.cls-15{fill:#c03;}.cls-13{opacity:0.5;}.cls-14,.cls-16{fill:#909;}.cls-14,.cls-15,.cls-17{opacity:0.25;}</style></defs><title>Linaro-Logo</title><g id="LinaroStandardWhite"><path class="cls-1" d="M138.57,124.27H100.05a6.25,6.25,0,0,0-6.25,6.25V169a6.25,6.25,0,0,0,6.25,6.25h38.52a6.25,6.25,0,0,0,6.25-6.25V130.51A6.24,6.24,0,0,0,138.57,124.27Z"/><path class="cls-2" d="M295.54,81a11.51,11.51,0,0,0-4,5,17.2,17.2,0,0,0-1.12,6.31,15,15,0,0,0,.66,4.81,7.78,7.78,0,0,0,1.88,3.1,6.89,6.89,0,0,0,2.94,1.68,13.62,13.62,0,0,0,3.76.49,37.58,37.58,0,0,0,3.8-.2,24.27,24.27,0,0,0,4-.76,25.78,25.78,0,0,0,4.16-1.55,29.25,29.25,0,0,0,4.29-2.51V75.93a59.57,59.57,0,0,0-12.57,1.65A22.93,22.93,0,0,0,295.54,81Z"/><path class="cls-2" d="M448,59.47a15.28,15.28,0,0,0-5.28-5,15.6,15.6,0,0,0-7.85-1.85,14.06,14.06,0,0,0-7.36,1.91,15.94,15.94,0,0,0-5.31,5.24,25.84,25.84,0,0,0-3.2,7.92,42.83,42.83,0,0,0-1.09,9.93,42.15,42.15,0,0,0,1,8.84,28.7,28.7,0,0,0,3,8.18,18.39,18.39,0,0,0,5.34,6,13.06,13.06,0,0,0,7.82,2.35,12.18,12.18,0,0,0,7.52-2.38,18.36,18.36,0,0,0,5.21-6.27,32.75,32.75,0,0,0,3-8.77,50.05,50.05,0,0,0,1-10,42.79,42.79,0,0,0-.89-8.88A21.49,21.49,0,0,0,448,59.47Z"/><polygon class="cls-3" points="157.14 99.76 112.53 99.76 112.53 9.75 94.39 9.75 94.39 113.15 157.14 113.15 157.14 99.76"/><path class="cls-3" d="M166.39,26.28a10,10,0,0,0,3,2.18,8.58,8.58,0,0,0,3.73.83,9,9,0,0,0,3.83-.79,9.6,9.6,0,0,0,3-2.11,9.11,9.11,0,0,0,1.91-3,10.09,10.09,0,0,0,.66-3.63,10.32,10.32,0,0,0-.66-3.66,8.69,8.69,0,0,0-1.91-3,9.26,9.26,0,0,0-6.8-2.81,10,10,0,0,0-3.73.69,9,9,0,0,0-3,1.95,9.39,9.39,0,0,0-2,3,9.22,9.22,0,0,0-.76,3.76,9,9,0,0,0,.76,3.6A10.51,10.51,0,0,0,166.39,26.28Z"/><rect class="cls-3" x="164.44" y="41.88" width="17.16" height="71.27"/><path class="cls-3" d="M227.5,54a28.88,28.88,0,0,1,4-.29,17.57,17.57,0,0,1,5.61.82,9.84,9.84,0,0,1,4.12,2.64,11.67,11.67,0,0,1,2.54,4.79,26.48,26.48,0,0,1,.86,7.26v43.95h17.16V66a26.35,26.35,0,0,0-2-10.63,23.13,23.13,0,0,0-5.58-7.92,24.24,24.24,0,0,0-8.31-4.95,30.37,30.37,0,0,0-10.33-1.72,29.73,29.73,0,0,0-6.47.69,32.66,32.66,0,0,0-5.78,1.85,33.69,33.69,0,0,0-4.91,2.61,28.89,28.89,0,0,0-3.83,2.9l-0.3-1.88q-0.17-1-.4-2c-0.16-.64-0.3-1.23-0.43-1.78a8.47,8.47,0,0,0-.4-1.29H196.82a43.07,43.07,0,0,1,.76,6.77q0.1,3.34.1,5.44v59.06h17.16V58.05a31.51,31.51,0,0,1,4-1.78q2.14-.79,4.36-1.38A36.38,36.38,0,0,1,227.5,54Z"/><path class="cls-3" d="M340.25,102.66a17.62,17.62,0,0,1-2,.2,7.09,7.09,0,0,1-2.44-.36,3.31,3.31,0,0,1-1.62-1.26,5.9,5.9,0,0,1-.89-2.44,23.58,23.58,0,0,1-.26-3.86V63.13a19.89,19.89,0,0,0-2.44-10.06,20.43,20.43,0,0,0-6.53-7,30,30,0,0,0-9.37-4,45.27,45.27,0,0,0-11-1.32,46.15,46.15,0,0,0-16.23,2.87,40.73,40.73,0,0,0-13.33,8l9,10.29a59.14,59.14,0,0,1,5.41-4.65,28.78,28.78,0,0,1,4.72-2.9,18.51,18.51,0,0,1,4.52-1.52,25.48,25.48,0,0,1,4.75-.43,18.26,18.26,0,0,1,5.41.76,11.07,11.07,0,0,1,4.19,2.34,10.74,10.74,0,0,1,2.74,4.09,16.36,16.36,0,0,1,1,6v2.57q-5.61,0-11,.46a73.07,73.07,0,0,0-10.26,1.58,43.76,43.76,0,0,0-8.94,3.06,25.24,25.24,0,0,0-7.06,4.92A21.32,21.32,0,0,0,274,85.27a25.36,25.36,0,0,0-1.68,9.6,23.1,23.1,0,0,0,1.45,8.54,16.32,16.32,0,0,0,4.16,6.13,17.66,17.66,0,0,0,6.53,3.73,27.7,27.7,0,0,0,8.64,1.26,44.68,44.68,0,0,0,5.84-.4,33,33,0,0,0,6-1.39,31.71,31.71,0,0,0,11.71-7,10.18,10.18,0,0,0,4.26,6.5,14.35,14.35,0,0,0,8.28,2.28,27.58,27.58,0,0,0,4.85-.4,28.82,28.82,0,0,0,4.09-1,23.92,23.92,0,0,0,3.53-1.48q1.65-.86,3.23-1.85L343,102.2Q341.7,102.46,340.25,102.66ZM315.9,97.45a29.25,29.25,0,0,1-4.29,2.51,25.78,25.78,0,0,1-4.16,1.55,24.27,24.27,0,0,1-4,.76,37.58,37.58,0,0,1-3.8.2,13.62,13.62,0,0,1-3.76-.49,6.89,6.89,0,0,1-2.94-1.68,7.78,7.78,0,0,1-1.88-3.1,15,15,0,0,1-.66-4.81,17.2,17.2,0,0,1,1.12-6.31,11.51,11.51,0,0,1,4-5,22.93,22.93,0,0,1,7.79-3.46,59.57,59.57,0,0,1,12.57-1.65V97.45Z"/><path class="cls-3" d="M350.95,47.56q0,1.78.06,3.5c0,1.14,0,2.09,0,2.84v59.26h17.29L368.2,66.5a22.76,22.76,0,0,1,7.16-7.65,19.87,19.87,0,0,1,14.12-2.54,17.56,17.56,0,0,1,3.93,1.35l3.7-15.51a19.56,19.56,0,0,0-2.84-.92,23.33,23.33,0,0,0-5.41-.46,16,16,0,0,0-6.1,1.32,28.65,28.65,0,0,0-6.11,3.46,32,32,0,0,0-5.28,4.92,22.42,22.42,0,0,0-3.63,5.67,126.23,126.23,0,0,0-2-14.25H350.59c0.09,0.53.16,1.31,0.23,2.34S350.92,46.37,350.95,47.56Z"/><path class="cls-3" d="M468,63.49a32.72,32.72,0,0,0-6.24-11.88A29.28,29.28,0,0,0,451,43.67a38.14,38.14,0,0,0-15.57-2.9,39.32,39.32,0,0,0-15.74,2.9,31.38,31.38,0,0,0-11.12,7.85A32.41,32.41,0,0,0,402,63a43.54,43.54,0,0,0-2.18,13.86,49.28,49.28,0,0,0,2.34,15.67,32.94,32.94,0,0,0,6.89,12,30.4,30.4,0,0,0,11.25,7.69,40.9,40.9,0,0,0,15.41,2.71A34.23,34.23,0,0,0,450,112a32.12,32.12,0,0,0,10.82-7.92,34.69,34.69,0,0,0,6.79-11.72A42.93,42.93,0,0,0,470,78.11,51.61,51.61,0,0,0,468,63.49ZM450.86,85.64a32.75,32.75,0,0,1-3,8.77,18.36,18.36,0,0,1-5.21,6.27,12.18,12.18,0,0,1-7.52,2.38,13.06,13.06,0,0,1-7.82-2.35,18.39,18.39,0,0,1-5.34-6,28.7,28.7,0,0,1-3-8.18,42.15,42.15,0,0,1-1-8.84A42.83,42.83,0,0,1,419,67.72a25.84,25.84,0,0,1,3.2-7.92,15.94,15.94,0,0,1,5.31-5.24,14.06,14.06,0,0,1,7.36-1.91,15.6,15.6,0,0,1,7.85,1.85,15.28,15.28,0,0,1,5.28,5A21.49,21.49,0,0,1,451,66.79a42.79,42.79,0,0,1,.89,8.88A50.05,50.05,0,0,1,450.86,85.64Z"/><path class="cls-1" d="M202.58,124.24H164.06a6.25,6.25,0,0,0-6.25,6.25V169a6.25,6.25,0,0,0,6.25,6.25h38.52a6.25,6.25,0,0,0,6.25-6.25V130.49A6.24,6.24,0,0,0,202.58,124.24Z"/><path class="cls-1" d="M266.65,124.24H228.13a6.25,6.25,0,0,0-6.25,6.25V169a6.25,6.25,0,0,0,6.25,6.25h38.52A6.25,6.25,0,0,0,272.9,169V130.49A6.25,6.25,0,0,0,266.65,124.24Z"/><path class="cls-1" d="M330.73,124.24H292.21a6.25,6.25,0,0,0-6.25,6.25V169a6.25,6.25,0,0,0,6.25,6.25h38.52A6.25,6.25,0,0,0,337,169V130.49A6.24,6.24,0,0,0,330.73,124.24Z"/><path class="cls-1" d="M394.8,124.24H356.28a6.25,6.25,0,0,0-6.25,6.25V169a6.25,6.25,0,0,0,6.25,6.25H394.8a6.25,6.25,0,0,0,6.25-6.25V130.49A6.25,6.25,0,0,0,394.8,124.24Z"/><path class="cls-1" d="M458.88,124.24H420.36a6.25,6.25,0,0,0-6.25,6.25V169a6.25,6.25,0,0,0,6.25,6.25h38.52a6.25,6.25,0,0,0,6.25-6.25V130.49A6.25,6.25,0,0,0,458.88,124.24Z"/><path class="cls-4" d="M93.73,169V149.82H63.81v11.45A5.68,5.68,0,0,1,58.14,167H54.33v28.18H65.19a5.32,5.32,0,0,1,5.32,5.32v9.69h37a7.09,7.09,0,0,0,7.09-7.09v-27.8H100A6.25,6.25,0,0,1,93.73,169Z"/><path class="cls-5" d="M107.56,149.82H93.73V169a6.25,6.25,0,0,0,6.25,6.25h14.67V156.92A7.09,7.09,0,0,0,107.56,149.82Z"/><path class="cls-6" d="M61.43,149.82h2.39V129.92a5.68,5.68,0,0,0-5.67-5.67H26.78a5.68,5.68,0,0,0-5.67,5.67v5h6.76a3.55,3.55,0,0,1,3.55,3.55v14.18a3.55,3.55,0,0,1-3.55,3.55H21.1v5A5.68,5.68,0,0,0,26.78,167H54.33v-10A7.1,7.1,0,0,1,61.43,149.82Z"/><path class="cls-7" d="M63.81,161.28V149.82H61.43a7.1,7.1,0,0,0-7.1,7.09v10h3.81A5.68,5.68,0,0,0,63.81,161.28Z"/><path class="cls-8" d="M54.33,203.05v-7.92H40.79a5.32,5.32,0,0,0-5.32,5.32v24.4a5.32,5.32,0,0,0,5.32,5.32h24.4a5.32,5.32,0,0,0,5.32-5.32v-14.7H61.43A7.1,7.1,0,0,1,54.33,203.05Z"/><path class="cls-9" d="M65.19,195.13H54.33v7.92a7.1,7.1,0,0,0,7.1,7.09h9.09v-9.69A5.32,5.32,0,0,0,65.19,195.13Z"/><path class="cls-10" d="M13.68,135a3.55,3.55,0,0,0-3.55,3.55v14.18a3.55,3.55,0,0,0,3.55,3.55H21.1V135H13.68Z"/><path class="cls-11" d="M31.41,152.69V138.5A3.55,3.55,0,0,0,27.86,135H21.1v21.28h6.76A3.55,3.55,0,0,0,31.41,152.69Z"/><rect class="cls-12" x="73.48" y="124.56" width="14.67" height="14.67" rx="2.44" ry="2.44"/><path class="cls-13" d="M58.51,124.24H26.34a5.22,5.22,0,0,0-5.22,5.22v32.17a5.22,5.22,0,0,0,5.22,5.22H58.51a5.22,5.22,0,0,0,5.22-5.22V129.46A5.22,5.22,0,0,0,58.51,124.24Z"/><path class="cls-14" d="M107.25,149.8H61.62a7.4,7.4,0,0,0-7.41,7.4v45.63a7.4,7.4,0,0,0,7.41,7.4h45.63a7.4,7.4,0,0,0,7.4-7.4V157.2A7.4,7.4,0,0,0,107.25,149.8Z"/><path class="cls-15" d="M66.15,195.38H39.82a4.27,4.27,0,0,0-4.27,4.27V226a4.27,4.27,0,0,0,4.27,4.27H66.15A4.27,4.27,0,0,0,70.42,226V199.65A4.27,4.27,0,0,0,66.15,195.38Z"/><rect class="cls-16" x="73.55" y="124.24" width="14.61" height="14.6" rx="1.79" ry="1.79"/><path class="cls-17" d="M12.56,135.11H28.38a2.57,2.57,0,0,1,2.57,2.57v15.81a2.56,2.56,0,0,1-2.56,2.56H12.56A2.56,2.56,0,0,1,10,153.49V137.68A2.56,2.56,0,0,1,12.56,135.11Z"/></g></svg>